#!OML:ASF F:\VICON\USERDATA\INSTALL\rory3\rory3.ASF
:FULLY-SPECIFIED
:DEGREES
290
root -0.806918 14.5423 -5.81843 -163.109 4.44276 177.421
lowerback 11.3761 1.90272 -4.82231
upperback 6.41487 2.81406 -0.283653
thorax 0.152233 1.60359 2.10151
lowerneck -12.2811 5.80888 -0.491193
upperneck 47.0216 -0.320499 1.93493
head 20.8628 -1.9125 0.288733
rclavicle -1.19271e-015 7.15625e-015
rhumerus 36.9912 -54.0909 -88.6212
rradius 14.4477
rwrist 135.894
rhand 11.1112 3.24357
rfingers 7.12502
rthumb 36.1795 -23.0286
lclavicle -1.19271e-015 7.15625e-015
lhumerus 39.2149 -51.2822 7.50636
lradius 21.259
lwrist -36.7896
lhand 22.5894 34.7741
lfingers 7.12502
lthumb 46.9393 57.4671
rfemur -76.8309 -35.4708 44.6207
rtibia 95.1212
rfoot 51.8429 -23.091
rtoes 27.5927
lfemur -69.8792 16.6908 -46.8779
ltibia 65.1233
lfoot -24.1243 15.5656
ltoes -1.82605
291
root -0.807875 14.5136 -5.86367 -163.325 4.48781 177.326
lowerback 11.476 1.96586 -4.81797
upperback 6.42958 2.90259 -0.449198
thorax 0.116381 1.65572 1.9132
lowerneck -12.444 5.90268 -0.138148
upperneck 47.4613 -0.523594 1.93414
head 21.2702 -1.96006 0.166818
rclavicle -1.55052e-014 1.55052e-014
rhumerus 35.1636 -53.722 -89.8036
rradius 13.952
rwrist 135.254
rhand 10.665 4.24248
rfingers 7.12502
rthumb 35.7568 -22.1334
lclavicle -1.55052e-014 1.55052e-014
lhumerus 37.5814 -49.1218 13.5452
lradius 21.0589
lwrist -38.9154
lhand 21.3066 33.8509
lfingers 7.12502
lthumb 45.7503 57.0487
rfemur -77.1474 -35.4735 44.69
rtibia 94.6561
rfoot 54.973 -20.8783
rtoes 26.0411
lfemur -69.9131 17.0517 -47.002
ltibia 65.6353
lfoot -24.7416 14.8844
ltoes -1.54563
292
root -0.807423 14.4886 -5.90256 -163.601 4.59383 177.232
lowerback 11.7223 2.05935 -4.87079
upperback 6.38159 3.00871 -0.587588
thorax -0.0684883 1.71648 1.77411
lowerneck -12.3739 5.93794 0.175228
upperneck 47.6337 -0.66948 1.88354
head 21.3966 -1.98431 0.0441762
rclavicle 2.84262e-014 -1.05356e-014
rhumerus 33.0488 -53.1079 -90.53
rradius 13.2781
rwrist 133.823
rhand 10.3659 5.52176
rfingers 7.12502
rthumb 35.4733 -20.9224
lclavicle 2.84262e-014 -1.05356e-014
lhumerus 36.1906 -47.4443 19.2848
lradius 20.7702
lwrist -40.2648
lhand 18.6993 33.3177
lfingers 7.12502
lthumb 43.3215 57.449
rfemur -76.6594 -35.4592 44.0243
rtibia 94.83
rfoot 53.8244 -30.9642
rtoes 36.412
lfemur -69.8482 17.5321 -47.1886
ltibia 66.1354
lfoot -25.2554 14.2519
ltoes -1.85937
293
root -0.798255 14.4494 -5.93308 -163.8 5.0711 177.036
lowerback 11.8983 2.31677 -5.31655
upperback 6.35593 3.29856 -0.735623
thorax -0.21823 1.85978 1.82385
lowerneck -12.2967 5.89794 0.48304
upperneck 47.6185 -0.790338 1.7807
head 21.371 -1.9857 -0.090631
rclavicle 4.37326e-015 -1.37161e-014
rhumerus 29.6307 -51.1504 -89.608
rradius 12.7408
rwrist 130.233
rhand 9.24937 6.8307
rfingers 7.12502
rthumb 34.4141 -19.8602
lclavicle 4.37326e-015 -1.37161e-014
lhumerus 35.1747 -45.95 24.6283
lradius 20.5515
lwrist -40.8431
lhand 16.0502 32.6921
lfingers 7.12502
lthumb 40.8393 57.6594
rfemur -77.1644 -34.8371 44.0084
rtibia 94.7405
rfoot 59.4087 -19.5119
rtoes 20.8412
lfemur -70.1125 18.2172 -47.6426
ltibia 66.6746
lfoot -24.9557 14.5527
ltoes -2.11041
294
root -0.78467 14.4029 -5.95718 -164.004 5.22156 176.678
lowerback 12.1359 2.40819 -5.95276
upperback 6.28293 3.33557 -0.806987
thorax -0.446537 1.87321 2.08533
lowerneck -12.3121 5.96859 0.639128
upperneck 47.7714 -0.799687 1.74058
head 21.5019 -1.98152 -0.150745
rclavicle 1.25234e-014 -1.07344e-014
rhumerus 26.0543 -48.172 -88.3542
rradius 12.1313
rwrist 125.562
rhand 7.92536 8.08767
rfingers 7.12502
rthumb 33.1561 -18.8795
lclavicle 1.25234e-014 -1.07344e-014
lhumerus 33.6812 -44.2758 30.3652
lradius 20.4771
lwrist -41.0754
lhand 14.2468 31.4964
lfingers 7.12502
lthumb 39.1422 56.9756
rfemur -76.3675 -34.4095 42.7868
rtibia 95.3112
rfoot 54.7013 -32.6888
rtoes 34.8681
lfemur -70.4165 18.713 -48.3025
ltibia 67.1861
lfoot -24.681 17.5084
ltoes -13.4689
295
root -0.777091 14.3739 -5.99163 -164.258 5.13907 176.192
lowerback 12.3823 2.43225 -6.505
upperback 6.15951 3.27929 -0.896287
thorax -0.720587 1.84377 2.29156
lowerneck -12.1835 6.03326 0.775504
upperneck 47.9537 -0.89306 1.76332
head 21.613 -2.01634 -0.194848
rclavicle 1.59028e-014 -1.09332e-014
rhumerus 23.0256 -44.9274 -87.5058
rradius 11.3247
rwrist 120.601
rhand 7.16158 9.43232
rfingers 7.12502
rthumb 32.4295 -17.6865
lclavicle 1.59028e-014 -1.09332e-014
lhumerus 32.8341 -43.3764 35.3406
lradius 20.2162
lwrist -40.2609
lhand 12.4416 30.745
lfingers 7.12502
lthumb 37.4383 56.6949
rfemur -76.3053 -34.5832 42.1208
rtibia 95.6772
rfoot 56.1276 -28.7053
rtoes 30.6725
lfemur -70.3651 19.0534 -48.9692
ltibia 67.6418
lfoot -24.2248 15.8549
ltoes -9.80204
296
root -0.781153 14.3463 -6.02943 -164.411 4.92478 175.729
lowerback 12.2762 2.42044 -6.75843
upperback 6.1344 3.24487 -1.02916
thorax -0.688577 1.82448 2.30343
lowerneck -12.0917 5.97853 0.967655
upperneck 48.0202 -1.07762 1.7002
head 21.6455 -2.06917 -0.306158
rclavicle -2.06736e-014 -1.05356e-014
rhumerus 19.6839 -39.5718 -85.9628
rradius 10.7041
rwrist 113.245
rhand 6.86717 10.6046
rfingers 7.12502
rthumb 32.1492 -16.5713
lclavicle -2.06736e-014 -1.05356e-014
lhumerus 32.5286 -42.7707 39.8343
lradius 19.9402
lwrist -39.3068
lhand 10.6387 30.5315
lfingers 7.12502
lthumb 35.7318 56.9134
rfemur -76.2245 -35.0471 41.3546
rtibia 96.1514
rfoot 55.9381 -28.0507
rtoes 30.601
lfemur -70.1254 19.0965 -49.4241
ltibia 68.0086
lfoot -25.0272 14.8953
ltoes -6.64942
297
root -0.787322 14.3248 -6.06479 -164.081 5.11163 175.981
lowerback 11.4797 2.54996 -6.429
upperback 6.0941 3.4785 -1.06088
thorax -0.30852 1.92342 2.09461
lowerneck -12.6801 5.92035 0.863794
upperneck 48.1585 -1.34283 1.9552
head 22.1835 -2.15751 -0.233845
rclavicle 4.03533e-014 -2.32578e-014
rhumerus 16.7488 -32.043 -84.4265
rradius 10.0227
rwrist 103.088
rhand 6.24795 11.1904
rfingers 7.12502
rthumb 31.5596 -16.1029
lclavicle 4.03533e-014 -2.32578e-014
lhumerus 32.1702 -41.7876 44.4596
lradius 19.7153
lwrist -39.2213
lhand 9.55355 29.7498
lfingers 7.12502
lthumb 34.7028 56.3747
rfemur -76.224 -34.7615 41.3305
rtibia 96.3992
rfoot 55.5518 -28.2184
rtoes 31.6183
lfemur -70.7916 19.4761 -49.5988
ltibia 68.4477
lfoot -25.3937 14.5163
ltoes -6.83285
298
root -0.802182 14.331 -6.11654 -163.819 4.73169 176.295
lowerback 10.6195 2.40109 -5.77438
upperback 6.11015 3.37803 -0.968741
thorax 0.201715 1.85962 1.88253
lowerneck -12.7544 5.91864 0.566676
upperneck 48.1794 -1.40414 2.26776
head 22.2321 -2.20366 -0.022249
rclavicle -1.76918e-014 -6.75868e-015
rhumerus 14.4483 -21.1753 -82.8318
rradius 9.51184
rwrist 89.5349
rhand 6.56343 11.6544
rfingers 7.12502
rthumb 31.86 -15.5795
lclavicle -1.76918e-014 -6.75868e-015
lhumerus 31.6837 -40.7592 49.06
lradius 19.5788
lwrist -39.5062
lhand 8.71446 28.9054
lfingers 7.12502
lthumb 33.9061 55.7099
rfemur -75.9548 -35.3881 41.469
rtibia 96.3231
rfoot 55.3532 -27.5143
rtoes 32.531
lfemur -70.9924 19.7097 -49.7389
ltibia 68.676
lfoot -25.0134 14.9513
ltoes -11.2864
299
root -0.778617 14.3322 -6.12462 -164.155 4.29235 176.221
lowerback 11.2106 2.37036 -6.0313
upperback 6.0303 3.27315 -0.834583
thorax -0.212132 1.81415 2.14501
lowerneck -12.6329 5.88023 0.693242
upperneck 48.0897 -1.37997 2.11889
head 22.1032 -2.18564 -0.118843
rclavicle 3.77691e-015 0
rhumerus 12.7845 -10.2645 -81.9409
rradius 9.6886
rwrist 76.0359
rhand 7.31766 12.3013
rfingers 7.12502
rthumb 32.578 -14.787
lclavicle 3.77691e-015 0
lhumerus 31.3429 -40.2116 53.1572
lradius 19.6245
lwrist -40.0541
lhand 7.6572 28.2058
lfingers 7.12502
lthumb 32.901 55.2269
rfemur -75.3475 -35.4526 41.1812
rtibia 96.1597
rfoot 53.4994 -28.9153
rtoes 35.7534
lfemur -70.6604 19.906 -49.7081
ltibia 68.6897
lfoot -24.435 15.0893
ltoes -13.454
300
root -0.763423 14.3454 -6.1553 -164.43 3.89523 176.075
lowerback 11.2346 2.28405 -6.27311
upperback 6.0982 3.15023 -0.720769
thorax -0.158267 1.74839 2.41404
lowerneck -12.7301 5.86407 0.831543
upperneck 48.1327 -1.29502 1.80963
head 22.1734 -2.16485 -0.296997
rclavicle 5.38706e-014 -3.89618e-014
rhumerus 11.8801 0.77791 -81.4987
rradius 10.2837
rwrist 62.6719
rhand 7.37448 12.4412
rfingers 7.12502
rthumb 32.6321 -14.6359
lclavicle 5.38706e-014 -3.89618e-014
lhumerus 31.4257 -40.1766 56.4318
lradius 19.7899
lwrist -40.2514
lhand 6.48675 27.6514
lfingers 7.12502
lthumb 31.787 54.8998
rfemur -74.8102 -35.8527 40.7954
rtibia 95.9577
rfoot 53.1497 -27.5367
rtoes 34.2897
lfemur -70.0985 20.1132 -49.7005
ltibia 68.5024
lfoot -24.5079 14.3724
ltoes -12.7912
